<svg xmlns="http://www.w3.org/2000/svg" viewBox="0 0 1000 500"><rect width="1000" height="500" fill="#AFDDEE"/><g fill="#EAF0D5" stroke="#DCE7C7" stroke-width="2" stroke-linejoin="round"><path d="M65 76 92 48 175 38 228 54 259 85 274 112 244 143 215 160 202 190 221 219 257 236 271 250 253 257 226 240 194 226 176 205 145 191 118 160 100 123 70 113Z"/><path d="M284 38 319 25 348 45 325 97 293 104 274 77Z"/><path d="M258 260 303 252 329 275 340 307 320 338 319 362 298 398 277 430 269 404 258 367 244 324 237 280Z"/><path d="M434 111 465 101 479 81 496 76 512 101 502 126 473 148 446 145Z"/><path d="M463 167 505 155 548 182 562 222 548 256 522 292 497 318 483 287 468 249 444 217 447 180Z"/><path d="M505 105 531 70 575 52 659 49 703 60 770 72 828 106 867 114 887 141 849 164 810 169 787 200 753 219 716 191 693 210 671 244 646 235 615 207 592 173 557 167 540 148 511 148Z"/><path d="M720 244 749 260 775 270 800 276 817 287 795 294 769 280 741 277Z"/><path d="M805 328 849 303 886 319 916 353 897 388 862 384 825 363Z"/><path d="M936 390 949 405 941 420 927 415Z"/><path d="M0 473 88 463 217 479 389 468 578 475 742 465 887 471 1000 461 1000 500 0 500Z"/></g></svg>